<?xml version="1.0" encoding="UTF-8"?>
<!-- COLAW — favicon (onglet). Pastille chocolat + emblème « Sceau C + Balance »
     en crème : contraste garanti et lisibilité à 16 px sur onglet clair ou sombre.
     Pour l'usage grand format (OG, manifest), voir brand-mark.svg (trait chocolat). -->
<svg xmlns="http://www.w3.org/2000/svg" viewBox="0 0 32 32" width="512" height="512">
  <defs>
    <linearGradient id="fav" x1="0" y1="0" x2="1" y2="1">
      <stop offset="0" stop-color="#b3835a"/>
      <stop offset="1" stop-color="#8f5d38"/>
    </linearGradient>
  </defs>
  <rect x="0" y="0" width="32" height="32" rx="7.5" fill="url(#fav)"/>
  <g transform="translate(6,4)" stroke="#f4efe3" fill="none" stroke-linecap="round" stroke-linejoin="round">
    <path d="M18.13 6.86A8 8 0 1 0 18.13 17.14" stroke-width="2.6"/>
    <path d="M12 8V15.4M9.9 15.4H14.1M8.7 9.7H15.3M8.7 9.7V10.9M15.3 9.7V10.9" stroke-width="1.6"/>
    <path d="M7.4 10.9a1.3 0.9 0 0 0 2.6 0M14 10.9a1.3 0.9 0 0 0 2.6 0" stroke-width="1.6"/>
    <rect x="11.1" y="6.2" width="1.8" height="1.8" rx="0.4" transform="rotate(45 12 7.1)" fill="#f4efe3" stroke="none"/>
  </g>
</svg>
