<svg xmlns="http://www.w3.org/2000/svg" width="1200" height="630" viewBox="0 0 1200 630" role="img" aria-label="COLAW — L'assistant juridique IA souverain">
  <defs>
    <linearGradient id="bg" x1="0" y1="0" x2="1" y2="1">
      <stop offset="0" stop-color="#f0eee6"/>
      <stop offset="1" stop-color="#e9e5da"/>
    </linearGradient>
    <linearGradient id="choc" x1="0" y1="0" x2="1" y2="1">
      <stop offset="0" stop-color="#a9764e"/>
      <stop offset="1" stop-color="#915f3a"/>
    </linearGradient>
  </defs>

  <rect width="1200" height="630" fill="url(#bg)"/>
  <rect x="0" y="0" width="1200" height="10" fill="url(#choc)"/>

  <!-- Sceau C + Balance -->
  <g transform="translate(96,150) scale(4.6)" fill="none" stroke-linecap="round" stroke-linejoin="round">
    <path d="M20 6.5a8.5 8.5 0 1 0 0 11" stroke="#a9764e" stroke-width="1.7"/>
    <path d="M12 5.2v11.6M8.4 8.2h7.2M8.4 8.2l-2.1 3.9a2.3 2.3 0 0 0 4.2 0zM15.6 8.2l2.1 3.9a2.3 2.3 0 0 1-4.2 0z" stroke="#915f3a" stroke-width="1.1"/>
    <path d="M9.6 17h4.8" stroke="#915f3a" stroke-width="1.1"/>
    <rect x="10.7" y="3.4" width="2.6" height="2.6" transform="rotate(45 12 4.7)" fill="#a9764e" stroke="none"/>
  </g>

  <text x="232" y="250" font-family="Georgia, 'Times New Roman', serif" font-size="118" font-weight="600" letter-spacing="4" fill="url(#choc)">COLAW</text>

  <text x="98" y="410" font-family="Georgia, 'Times New Roman', serif" font-size="58" font-weight="600" fill="#1f1d1a">L'assistant juridique IA souverain</text>

  <text x="98" y="480" font-family="-apple-system, 'Segoe UI', Helvetica, Arial, sans-serif" font-size="31" fill="#55514a">Corpus FR &amp; UE complet · Données pseudonymisées · Windows &amp; macOS</text>

  <g font-family="-apple-system, 'Segoe UI', Helvetica, Arial, sans-serif" font-size="25" fill="#8a8479">
    <circle cx="108" cy="545" r="6" fill="#a9764e"/>
    <text x="126" y="553">Rédaction d'actes aux normes</text>
    <circle cx="520" cy="545" r="6" fill="#a9764e"/>
    <text x="538" y="553">Veille JORF en continu</text>
    <circle cx="860" cy="545" r="6" fill="#a9764e"/>
    <text x="878" y="553">Essai gratuit 30 jours</text>
  </g>
</svg>
